<?xml version="1.0" encoding="utf-8"?>
<!-- Generator: Adobe Illustrator 16.0.0, SVG Export Plug-In . SVG Version: 6.00 Build 0)  -->
<!DOCTYPE svg PUBLIC "-//W3C//DTD SVG 1.1//EN" "http://www.w3.org/Graphics/SVG/1.1/DTD/svg11.dtd">
<svg version="1.1" id="Layer_1" xmlns="http://www.w3.org/2000/svg" xmlns:xlink="http://www.w3.org/1999/xlink" x="0px" y="0px"
	 width="283.46px" height="283.46px" viewBox="0 0 283.46 283.46" enable-background="new 0 0 283.46 283.46" xml:space="preserve">
<path fill="#262626" d="M142.153,91.888c13.682,0,26.048,5.538,35.014,14.504c8.966,8.966,14.505,21.332,14.505,35.013
	c0,13.682-5.539,26.047-14.505,35.013s-21.332,14.505-35.014,14.505s-26.047-5.539-35.013-14.505s-14.504-21.331-14.504-35.013
	c0-13.682,5.539-26.047,14.504-35.013C116.106,97.426,128.472,91.888,142.153,91.888L142.153,91.888z M174.453,109.134
	c-8.281-8.253-19.688-13.381-32.3-13.381c-12.612,0-24.019,5.128-32.271,13.381c-8.253,8.253-13.38,19.659-13.38,32.271
	c0,12.613,5.127,24.018,13.38,32.299c8.253,8.253,19.66,13.353,32.271,13.353c12.612,0,24.019-5.1,32.3-13.353
	c8.252-8.281,13.353-19.687,13.353-32.299C187.806,128.793,182.705,117.387,174.453,109.134L174.453,109.134z"/>
<path fill-rule="evenodd" clip-rule="evenodd" fill="#262626" d="M145.938,131.288v-4.058c0-1.947,1.288-2.413,2.221-2.413
	c0.904,0,5.676,0,5.676,0v-8.665h-7.814c-8.691,0-10.638,6.416-10.638,10.583v4.551h-5.045v6.114v4.003h5.1
	c0,11.489,0,25.28,0,25.28h10.118c0,0,0-13.983,0-25.28h7.485l0.329-3.976l0.603-6.142H145.938z"/>
</svg>
